<svg width="22" height="20" viewBox="0 0 22 20" fill="none" xmlns="http://www.w3.org/2000/svg">
  <path fill-rule="evenodd" clip-rule="evenodd"
    d="M10.3198 0.631121C10.7034 0.275181 11.2966 0.275181 11.6802 0.631122L16.3069 4.92416L11.3223 11.5703C11.1481 11.8025 10.8136 11.8381 10.5944 11.6479L8.85186 10.1348C8.65366 9.96273 8.35611 9.97321 8.1705 10.1588L7.38888 10.9404C7.18036 11.149 7.19667 11.4917 7.42405 11.6795L10.8631 14.5196C11.0719 14.692 11.38 14.6669 11.5581 14.463L18.2858 6.76041L21.2566 9.51695C21.923 10.1353 21.4855 11.25 20.5764 11.25H19V19C19 19.5523 18.5523 20 18 20H4C3.44771 20 3 19.5523 3 19V11.25H1.42356C0.514513 11.25 0.0770084 10.1353 0.74338 9.51695L10.3198 0.631121Z"
    fill="#f9fafb"/>
</svg>
